<svg xmlns="http://www.w3.org/2000/svg" width="461" height="128" fill="none" viewBox="0 0 461 128"><path fill="#21CA65" d="M68.5 52L154.75 6.96667V97.0333L68.5 52Z"/><path fill="#17D965" d="M115 76L28.75 121.033L28.75 30.9667L115 76Z"/><path fill="#000" d="M235.875 33.9688H250.547L229.172 102.5H213.328L192 33.9688H206.672L218.297 75.2188C218.453 75.75 218.656 76.6406 218.906 77.8906C219.188 79.1406 219.469 80.5156 219.75 82.0156C220.062 83.5156 220.359 85.0156 220.641 86.5156C220.922 88.0156 221.141 89.2812 221.297 90.3125C221.453 89.2812 221.672 88.0156 221.953 86.5156C222.234 85.0156 222.531 83.5312 222.844 82.0625C223.156 80.5625 223.453 79.1875 223.734 77.9375C224.047 76.6875 224.281 75.7812 224.438 75.2188L235.875 33.9688ZM257.484 36.5469C257.484 35.2031 257.688 34.0938 258.094 33.2188C258.5 32.3125 259.047 31.5937 259.734 31.0625C260.453 30.5 261.281 30.1094 262.219 29.8906C263.188 29.6719 264.203 29.5625 265.266 29.5625C266.328 29.5625 267.328 29.6719 268.266 29.8906C269.203 30.1094 270.016 30.5 270.703 31.0625C271.422 31.5937 271.984 32.3125 272.391 33.2188C272.828 34.0938 273.047 35.2031 273.047 36.5469C273.047 37.8594 272.828 38.9688 272.391 39.875C271.984 40.7812 271.422 41.5156 270.703 42.0781C270.016 42.6094 269.203 43 268.266 43.25C267.328 43.4688 266.328 43.5781 265.266 43.5781C264.203 43.5781 263.188 43.4688 262.219 43.25C261.281 43 260.453 42.6094 259.734 42.0781C259.047 41.5156 258.5 40.7812 258.094 39.875C257.688 38.9688 257.484 37.8594 257.484 36.5469ZM272.391 102.5H258.094V50.0938H272.391V102.5ZM308.625 59.2812C306.094 59.2812 303.984 60.1719 302.297 61.9531C300.641 63.7344 299.688 66.5312 299.438 70.3438H317.672C317.641 68.75 317.438 67.2812 317.062 65.9375C316.688 64.5938 316.125 63.4375 315.375 62.4688C314.625 61.4688 313.688 60.6875 312.562 60.125C311.438 59.5625 310.125 59.2812 308.625 59.2812ZM310.453 103.438C306.703 103.438 303.25 102.891 300.094 101.797C296.938 100.703 294.219 99.0625 291.938 96.875C289.656 94.6562 287.875 91.875 286.594 88.5312C285.344 85.1562 284.719 81.2031 284.719 76.6719C284.719 72.0781 285.297 68.0625 286.453 64.625C287.609 61.1875 289.219 58.3281 291.281 56.0469C293.375 53.7344 295.875 52 298.781 50.8438C301.719 49.6875 304.969 49.1094 308.531 49.1094C312 49.1094 315.125 49.6406 317.906 50.7031C320.719 51.7344 323.094 53.2656 325.031 55.2969C327 57.3281 328.5 59.8281 329.531 62.7969C330.594 65.7344 331.125 69.1094 331.125 72.9219V79.8594H299.156C299.219 81.8594 299.531 83.6719 300.094 85.2969C300.688 86.8906 301.5 88.25 302.531 89.375C303.594 90.4688 304.859 91.3125 306.328 91.9062C307.828 92.5 309.531 92.7969 311.438 92.7969C313.031 92.7969 314.531 92.7188 315.938 92.5625C317.375 92.375 318.766 92.1094 320.109 91.7656C321.453 91.4219 322.781 91 324.094 90.5C325.406 89.9688 326.75 89.3594 328.125 88.6719V99.7344C326.875 100.391 325.609 100.953 324.328 101.422C323.078 101.859 321.75 102.234 320.344 102.547C318.938 102.859 317.422 103.078 315.797 103.203C314.172 103.359 312.391 103.438 310.453 103.438ZM376.828 102.5H338.297V94.0625L359.719 61.0156H339.75V50.0938H375.938V59.375L355.219 91.5781H376.828V102.5ZM401.391 102.5H387.094V29.5625H401.391V102.5ZM408.938 50.0938H424.594L433.031 79.5781C433.531 81.2031 433.891 82.9375 434.109 84.7812C434.359 86.625 434.516 88.2812 434.578 89.75H434.859C434.922 89.0312 435 88.2344 435.094 87.3594C435.219 86.4844 435.359 85.5938 435.516 84.6875C435.672 83.7812 435.844 82.8906 436.031 82.0156C436.25 81.1094 436.469 80.2969 436.688 79.5781L444.938 50.0938H460.688L439.969 109.203C438.031 114.734 435.391 118.844 432.047 121.531C428.703 124.219 424.516 125.562 419.484 125.562C417.859 125.562 416.453 125.469 415.266 125.281C414.078 125.125 413.062 124.953 412.219 124.766V113.422C412.875 113.578 413.703 113.719 414.703 113.844C415.703 113.969 416.75 114.031 417.844 114.031C419.344 114.031 420.625 113.828 421.688 113.422C422.75 113.016 423.656 112.438 424.406 111.688C425.188 110.969 425.844 110.094 426.375 109.062C426.938 108.031 427.422 106.875 427.828 105.594L428.719 102.969L408.938 50.0938Z"/></svg>